<svg xmlns="http://www.w3.org/2000/svg" viewBox="0 0 45 45" aria-hidden="true">
  <g fill="currentColor" stroke="currentColor" stroke-width="1.5" stroke-linecap="round" stroke-linejoin="round">
    <path d="M22 10c10.5 1 16.5 8 16 29H15c0-9 10-6.5 8-21"/>
    <path d="M24 18c.38 5.12-5.14 7.94-8.5 7.5-3.34-.35-6.25-2.72-6.5-6.5-.55-8.3 8.5-11.5 11-7.5C21.5 13.9 22 16.33 24 18z"/>
    <path d="M9.5 25.5a.5.5 0 1 1-1 0 .5.5 0 0 1 1 0zM14.933 15.75a.5.5 0 1 1-1 0 .5.5 0 0 1 1 0z"/>
    <path d="M15 35.5h13M13 39h17" stroke-width="1.5"/>
  </g>
</svg>
