<svg xmlns="http://www.w3.org/2000/svg" viewBox="0 0 45 45" aria-hidden="true">
  <g fill="currentColor" stroke="currentColor" stroke-width="1.5" stroke-linecap="round" stroke-linejoin="round">
    <path d="M22.5 9c-2.21 0-4 1.79-4 4 0 .89.29 1.71.78 2.38C17.33 16.5 16 18.59 16 21c0 2.03.94 3.84 2.41 5.03C15.41 27.09 14 29.35 14 32v4h17v-4c0-2.65-1.41-4.91-3.41-6.03C29.06 24.84 30 23.03 30 21c0-2.41-1.33-4.5-3.28-5.62.49-.67.78-1.49.78-2.38 0-2.21-1.79-4-4-4z"/>
    <path d="M14 36h17" stroke-width="1.5"/>
  </g>
</svg>
